<?xml version="1.0" encoding="utf-8"?><svg xml:space="preserve" viewBox="0 0 100 100" y="0px" x="0px" xmlns:xlink="http://www.w3.org/1999/xlink" xmlns="http://www.w3.org/2000/svg" id="圖層_1" version="1.1" width="200px" height="200px" style="width:100%;height:100%;background-size:initial;background-repeat-y:initial;background-repeat-x:initial;background-position-y:initial;background-position-x:initial;background-origin:initial;background-image:initial;background-color:rgb(255, 255, 255);background-clip:initial;background-attachment:initial;animation-play-state:paused" ><g class="ldl-scale" style="transform-origin:50% 50%;transform:rotate(0deg) scale(0.8, 0.8);animation-play-state:paused" ><g style="animation-play-state:paused" ><path d="M88.24,13.99H11.76c-2.31,0-4.18,1.87-4.18,4.18v15.21h84.83V18.17C92.42,15.86,90.55,13.99,88.24,13.99z" fill="#E15B64" style="fill:rgb(225, 91, 100);animation-play-state:paused" ></path>
<circle r="3.5" cy="23.95" cx="19.8" fill="#C33737" style="fill:rgb(195, 55, 55);animation-play-state:paused" ></circle>
<line y2="23.95" x2="19.8" y1="10.03" x1="19.8" stroke-miterlimit="10" stroke-linecap="round" stroke-width="4" stroke="#CCCCCC" fill="#333333" style="stroke:rgb(204, 204, 204);fill:rgb(51, 51, 51);animation-play-state:paused" ></line>
<circle r="3.5" cy="23.95" cx="34.91" fill="#C33737" style="fill:rgb(195, 55, 55);animation-play-state:paused" ></circle>
<line y2="23.95" x2="34.91" y1="10.03" x1="34.91" stroke-miterlimit="10" stroke-linecap="round" stroke-width="4" stroke="#CCCCCC" fill="#333333" style="stroke:rgb(204, 204, 204);fill:rgb(51, 51, 51);animation-play-state:paused" ></line>
<circle r="3.5" cy="23.95" cx="50.01" fill="#C33737" style="fill:rgb(195, 55, 55);animation-play-state:paused" ></circle>
<line y2="23.95" x2="50.01" y1="10.03" x1="50.01" stroke-miterlimit="10" stroke-linecap="round" stroke-width="4" stroke="#CCCCCC" fill="#333333" style="stroke:rgb(204, 204, 204);fill:rgb(51, 51, 51);animation-play-state:paused" ></line>
<circle r="3.5" cy="23.95" cx="65.11" fill="#C33737" style="fill:rgb(195, 55, 55);animation-play-state:paused" ></circle>
<line y2="23.95" x2="65.11" y1="10.03" x1="65.11" stroke-miterlimit="10" stroke-linecap="round" stroke-width="4" stroke="#CCCCCC" fill="#333333" style="stroke:rgb(204, 204, 204);fill:rgb(51, 51, 51);animation-play-state:paused" ></line>
<circle r="3.5" cy="23.95" cx="80.22" fill="#C33737" style="fill:rgb(195, 55, 55);animation-play-state:paused" ></circle>
<line y2="23.95" x2="80.22" y1="10.03" x1="80.22" stroke-miterlimit="10" stroke-linecap="round" stroke-width="4" stroke="#CCCCCC" fill="#333333" style="stroke:rgb(204, 204, 204);fill:rgb(51, 51, 51);animation-play-state:paused" ></line></g>
<g style="animation-play-state:paused" ><path d="M7.58,33.38v51.84c0,2.31,1.87,4.18,4.18,4.18h64.95h1.4l14.3-14.3v-1.4V33.38H7.58z" fill="#E0E0E0" style="fill:rgb(224, 224, 224);animation-play-state:paused" ></path>
<path d="M92.42,73.69H81.27c-2.52,0-4.55,2.04-4.55,4.55V89.4h1.4l14.3-14.3V73.69z" fill="#B3B3B3" style="fill:rgb(179, 179, 179);animation-play-state:paused" ></path></g>
<g style="animation-play-state:paused" ><rect height="6.37" width="10.24" fill="#F2F2F2" transform="matrix(0.7123 0.7018 -0.7018 0.7123 52.9811 -27.0133)" y="47.94" x="54.32" style="fill:rgb(242, 242, 242);animation-play-state:paused" ></rect>
<path d="M65.33,52.45l-7.3-7.19l4.14-4.2c1.08-1.1,2.86-1.11,3.96-0.03l3.31,3.26c1.1,1.08,1.11,2.86,0.03,3.96 L65.33,52.45z" fill="#E15B64" style="fill:rgb(225, 91, 100);animation-play-state:paused" ></path>
<rect height="10.24" width="30.25" fill="#ABBD81" transform="matrix(0.7018 -0.7123 0.7123 0.7018 -31.8176 52.3221)" y="59.05" x="31.47" style="fill:rgb(171, 189, 129);animation-play-state:paused" ></rect>
<polygon points="28.79,82.24 32.33,71.35 39.62,78.54" fill="#F8B26A" style="fill:rgb(248, 178, 106);animation-play-state:paused" ></polygon>
<polygon points="34.21,80.39 30.56,76.8 28.79,82.24" fill="#333333" style="fill:rgb(51, 51, 51);animation-play-state:paused" ></polygon></g>
<metadata xmlns:d="https://loading.io/stock/" style="animation-play-state:paused" ><d:name style="animation-play-state:paused" >calendar</d:name>


<d:tags style="animation-play-state:paused" >calendar,schedule,plan,work,business,special,remark,note,pencil</d:tags>


<d:license style="animation-play-state:paused" >by</d:license>


<d:slug style="animation-play-state:paused" >lt9vo</d:slug></metadata></g><!-- generated by https://loading.io/ --></svg>